<svg width="150" height="44" viewBox="0 0 150 44" fill="none" xmlns="http://www.w3.org/2000/svg" role="img" aria-labelledby="flatkey-logo-light-title">
  <title id="flatkey-logo-light-title">Flatkey</title>
  <defs>
    <linearGradient id="flatkey-logo-light-gradient" x1="0" y1="0" x2="1" y2="1">
      <stop stop-color="#A855F7"/>
      <stop offset="1" stop-color="#6D28D9"/>
    </linearGradient>
  </defs>
  <g transform="scale(0.59375)">
    <path d="M32 5.5C39 8.5 46 10.3 52.5 11.2C55 11.6 56.5 13.4 56.5 15.9V29.5C56.5 44 46 53.5 32 58.5C18 53.5 7.5 44 7.5 29.5V15.9C7.5 13.4 9 11.6 11.5 11.2C18 10.3 25 8.5 32 5.5Z" fill="url(#flatkey-logo-light-gradient)"/>
    <circle cx="32" cy="22.5" r="6.8" fill="#FFFFFF"/>
    <circle cx="32" cy="22.5" r="2.7" fill="#6D28D9"/>
    <rect x="29.6" y="26" width="4.8" height="20" rx="2.4" fill="#FFFFFF"/>
    <rect x="33.2" y="36.5" width="7.6" height="3.6" rx="1.8" fill="#FFFFFF"/>
    <rect x="33.2" y="42" width="5.8" height="3.6" rx="1.8" fill="#FFFFFF"/>
  </g>
  <text x="47" y="32.5" fill="#0B0B0F" font-family="Public Sans, Inter, Arial, sans-serif" font-size="30" font-weight="700" letter-spacing="-1.2">flatkey</text>
</svg>
